<?xml version="1.0" standalone="no"?>
<!DOCTYPE svg PUBLIC "-//W3C//DTD SVG 1.1//EN" "http://www.w3.org/Graphics/SVG/1.1/DTD/svg11.dtd">
<svg xmlns="http://www.w3.org/2000/svg" viewBox="0 0 1440 320" width="1440" height="320"><path fill="#B81214" fill-opacity="1" d="M0,160L40,138.7C80,117,160,75,240,80C320,85,400,139,480,138.7C560,139,640,85,720,80C800,75,880,117,960,133.3C1040,149,1120,139,1200,112C1280,85,1360,43,1400,21.3L1440,0L1440,320L1400,320C1360,320,1280,320,1200,320C1120,320,1040,320,960,320C880,320,800,320,720,320C640,320,560,320,480,320C400,320,320,320,240,320C160,320,80,320,40,320L0,320Z"/></svg>